<?xml version="1.0" standalone="no"?>
<!DOCTYPE svg PUBLIC "-//W3C//DTD SVG 20010904//EN"
 "http://www.w3.org/TR/2001/REC-SVG-20010904/DTD/svg10.dtd">
<svg version="1.0" xmlns="http://www.w3.org/2000/svg"
 width="512.000000pt" height="512.000000pt" viewBox="0 0 512.000000 512.000000"
 preserveAspectRatio="xMidYMid meet">

<g transform="translate(0.000000,512.000000) scale(0.100000,-0.100000)"
fill="#000000" stroke="none">
<path d="M4905 5109 c-20 -6 -739 -718 -2307 -2286 l-2278 -2278 -2 1582 -3
1582 -21 28 c-11 15 -36 39 -55 51 -28 20 -44 23 -92 20 -49 -4 -62 -9 -92
-38 -20 -19 -40 -50 -46 -70 -6 -23 -9 -629 -7 -1817 3 -1781 3 -1782 24
-1809 11 -15 33 -37 48 -48 l27 -21 1804 0 1804 0 28 21 c98 73 98 195 0 268
l-28 21 -1582 3 -1582 2 2282 2283 2282 2282 6 47 c10 69 -24 135 -85 166 -47
23 -76 26 -125 11z" color=""/>
</g>
</svg>
