<?xml version="1.0" standalone="no"?>
<!DOCTYPE svg PUBLIC "-//W3C//DTD SVG 20010904//EN"
 "http://www.w3.org/TR/2001/REC-SVG-20010904/DTD/svg10.dtd">
<svg version="1.0" xmlns="http://www.w3.org/2000/svg"
 width="512.000000pt" height="512.000000pt" viewBox="0 0 512.000000 512.000000"
 preserveAspectRatio="xMidYMid meet">

<g transform="translate(0.000000,512.000000) scale(0.100000,-0.100000)"
fill="#000000" stroke="none">
<path d="M1405 5106 c-16 -8 -43 -28 -59 -45 -24 -25 -30 -42 -34 -88 -3 -48
0 -64 20 -92 12 -19 36 -44 51 -55 l28 -21 1582 -3 1582 -2 -2282 -2283 -2282
-2282 -6 -47 c-16 -107 76 -199 183 -183 l47 6 2282 2282 2283 2282 2 -1582 3
-1582 21 -28 c73 -98 195 -98 268 0 l21 28 0 1804 0 1804 -21 27 c-11 15 -33
37 -48 48 l-27 21 -1792 2 c-1482 2 -1797 0 -1822 -11z"/>
</g>
</svg>
